Coordinates
version=1
nRows=21
nColumns=34
inDegrees=no

Units are S.I. units (second, meters, Newtons, ...)
If the header above contains a line with 'inDegrees', this indicates whether rotational values are in degrees (yes) or radians (no).

endheader
time	pelvis_tilt	pelvis_list	pelvis_rotation	pelvis_tx	pelvis_ty	pelvis_tz	hip_flexion_r	hip_adduction_r	hip_rotation_r	knee_angle_r	ankle_angle_r	subtalar_angle_r	mtp_angle_r	hip_flexion_l	hip_adduction_l	hip_rotation_l	knee_angle_l	ankle_angle_l	subtalar_angle_l	mtp_angle_l	lumbar_extension	lumbar_bending	lumbar_rotation	arm_flex_r	arm_add_r	arm_rot_r	elbow_flex_r	pro_sup_r	arm_flex_l	arm_add_l	arm_rot_l	elbow_flex_l	pro_sup_l
0.92	0.0241703	0.0986979	-0.0226206	0.965189	1.05592	-0.206277	0.537499	-0.148836	-0.0144373	1.06469	0.0502411	-0.238455	-0.0229293	-0.0272887	0.173697	0.0815744	0.043574	0.134272	0.004353	-0.022926	-0.133722	-0.112859	-0.113387	-0.0388563	-0.183324	0.0973448	0.583283	1.62716	0.129898	-0.312073	0.198051	0.74037	1.57485
0.93	0.0234524	0.0937903	-0.0177654	0.976082	1.05545	-0.206457	0.539113	-0.141146	-0.0178546	1.00742	0.0597954	-0.226236	-0.0229271	-0.0370521	0.168386	0.0843928	0.0482571	0.150085	0.0102465	-0.0229237	-0.135141	-0.106757	-0.118673	-0.0455761	-0.183783	0.0952192	0.569298	1.62794	0.142905	-0.314919	0.189374	0.754118	1.57122
0.94	0.0225009	0.0889965	-0.0133599	0.987093	1.05481	-0.206587	0.53842	-0.133633	-0.0213735	0.944882	0.0669818	-0.211261	-0.0229249	-0.0466903	0.163141	0.0862365	0.0529387	0.166174	0.0167164	-0.0229213	-0.136035	-0.100815	-0.123182	-0.0523503	-0.184253	0.0928773	0.555186	1.62817	0.155135	-0.317343	0.18144	0.768024	1.56688
0.95	0.0215321	0.0842452	-0.00933814	0.998238	1.05401	-0.206666	0.534994	-0.12626	-0.0254828	0.876929	0.0714651	-0.193485	-0.0229226	-0.0565634	0.157899	0.0871189	0.0574547	0.182508	0.0238705	-0.022919	-0.136641	-0.0949724	-0.12698	-0.0592101	-0.184748	0.0903417	0.541124	1.62766	0.166593	-0.319367	0.174387	0.781997	1.56208
0.96	0.0207918	0.079457	-0.00562513	1.00954	1.05308	-0.206692	0.528447	-0.118961	-0.0307035	0.803565	0.0730745	-0.172923	-0.0229204	-0.067065	0.152568	0.0870116	0.0616555	0.199091	0.031898	-0.0229167	-0.13723	-0.0891583	-0.130134	-0.0661853	-0.185275	0.0876518	0.527243	1.62636	0.177286	-0.321023	0.168317	0.795961	1.55709
0.97	0.0205033	0.0745633	-0.00214099	1.021	1.05205	-0.206662	0.518534	-0.111651	-0.0374922	0.725096	0.0719017	-0.149655	-0.0229182	-0.0785365	0.147045	0.0858403	0.0654478	0.215967	0.0410506	-0.0229144	-0.138046	-0.0833091	-0.132711	-0.0733003	-0.185825	0.0848665	0.513636	1.62443	0.187217	-0.322356	0.163288	0.80986	1.55223
0.98	0.020815	0.0695282	0.0011944	1.03265	1.05093	-0.206577	0.505275	-0.10424	-0.0461282	0.642259	0.0683604	-0.123842	-0.022916	-0.0911816	0.141238	0.0835007	0.0688347	0.233217	0.0515977	-0.022912	-0.139265	-0.0773848	-0.134779	-0.0805658	-0.186382	0.0820668	0.500363	1.62208	0.196384	-0.32342	0.159313	0.823671	1.54777
0.99	0.0217649	0.0643672	0.00445592	1.04448	1.0497	-0.206435	0.489042	-0.0966561	-0.0566067	0.556335	0.0631922	-0.0957659	-0.0229138	-0.104997	0.135085	0.0798903	0.071946	0.250948	0.0637641	-0.0229097	-0.140953	-0.0713772	-0.136415	-0.0879686	-0.186919	0.0793571	0.487455	1.61959	0.204773	-0.324285	0.156353	0.837401	1.54392
1	0.0232704	0.0591512	0.00770566	1.0565	1.04836	-0.206244	0.470616	-0.0888674	-0.0685655	0.469202	0.0574109	-0.0658745	-0.0229115	-0.119736	0.128574	0.0749569	0.0750478	0.269266	0.0776474	-0.0229074	-0.143041	-0.0653132	-0.137705	-0.0954597	-0.187409	0.076864	0.474926	1.61716	0.212351	-0.325022	0.154318	0.851083	1.54083
1.01	0.0251358	0.0539718	0.0109818	1.06867	1.0469	-0.206008	0.451159	-0.0809134	-0.0812745	0.383318	0.0521945	-0.0348191	-0.0229093	-0.134914	0.121753	0.0687517	0.0785267	0.288235	0.0931373	-0.0229051	-0.145336	-0.0592555	-0.13875	-0.102945	-0.187832	0.0747297	0.462773	1.61493	0.219072	-0.325699	0.153064	0.864764	1.53859
1.02	0.0270684	0.0489169	0.0142915	1.08097	1.04529	-0.205732	0.432104	-0.0729134	-0.0937166	0.301569	0.048739	-0.00345242	-0.0229071	-0.149887	0.11472	0.0614649	0.0828506	0.307836	0.109866	-0.0229027	-0.147568	-0.0532832	-0.139658	-0.110285	-0.188184	0.0730973	0.45098	1.61294	0.224878	-0.326364	0.152401	0.87849	1.53718
1.03	0.0287433	0.0440537	0.0176128	1.09336	1.04354	-0.20542	0.414958	-0.0650501	-0.104762	0.227011	0.0480975	0.0272424	-0.0229049	-0.163955	0.107592	0.0534215	0.0885103	0.327944	0.12722	-0.0229004	-0.149457	-0.047454	-0.140534	-0.117296	-0.188479	0.0720881	0.439518	1.61115	0.2297	-0.327029	0.152094	0.892291	1.53658
1.04	0.0298856	0.0393951	0.0209045	1.1058	1.04165	-0.205077	0.401048	-0.0575294	-0.113404	0.162473	0.0510233	0.056288	-0.0229026	-0.176489	0.100469	0.0450353	0.0959563	0.348323	0.144425	-0.0228981	-0.150773	-0.0417714	-0.141472	-0.123776	-0.188756	0.071774	0.428356	1.60943	0.233473	-0.32766	0.151889	0.906161	1.5367
1.05	0.0303306	0.0348727	0.0241239	1.11827	1.03965	-0.204705	0.391239	-0.0505149	-0.118982	0.110105	0.0578282	0.0828699	-0.0229004	-0.187049	0.0933825	0.036725	0.105546	0.368638	0.160685	-0.0228957	-0.151393	-0.0361576	-0.142542	-0.129539	-0.189067	0.0721503	0.417468	1.60767	0.236136	-0.328174	0.151533	0.920051	1.53745
1.06	0.030061	0.0303414	0.0272534	1.13076	1.0376	-0.204309	0.385705	-0.0440469	-0.121311	0.0709395	0.0682663	0.106435	-0.0228982	-0.19546	0.0862551	0.0288146	0.117512	0.388497	0.175344	-0.0228934	-0.151328	-0.0304375	-0.143783	-0.134453	-0.189468	0.0731163	0.40685	1.60575	0.23764	-0.328442	0.150814	0.933864	1.53876
1.07	0.0292247	0.0255905	0.0303255	1.14329	1.03556	-0.203891	0.383813	-0.0379848	-0.120662	0.044624	0.0814665	0.126667	-0.022896	-0.201831	0.0788846	0.0214627	0.131946	0.407476	0.188007	-0.0228911	-0.150698	-0.0243534	-0.145199	-0.138486	-0.189998	0.07447	0.396534	1.60358	0.237951	-0.328313	0.149595	0.947449	1.54053
1.08	0.0281039	0.0203691	0.0334249	1.15591	1.0336	-0.203454	0.384224	-0.0320121	-0.11762	0.0295381	0.0959756	0.14338	-0.0228937	-0.206513	0.0709756	0.0146764	0.148804	0.425116	0.198526	-0.0228888	-0.149693	-0.0176135	-0.146761	-0.141716	-0.190676	0.0759245	0.3866	1.60113	0.237044	-0.327634	0.14783	0.960614	1.54271
1.09	0.0270736	0.0144126	0.0366616	1.1687	1.03178	-0.202997	0.385236	-0.025689	-0.112942	0.0232481	0.109952	0.156408	-0.0228915	-0.210022	0.0621816	0.00834347	0.167938	0.44092	0.206941	-0.0228864	-0.148546	-0.00992907	-0.148422	-0.144308	-0.191493	0.0771595	0.377181	1.59841	0.234901	-0.326278	0.145558	0.973142	1.54527
1.1	0.026539	0.00747333	0.0401407	1.18172	1.03017	-0.20252	0.385158	-0.0185245	-0.107418	0.023037	0.121437	0.165575	-0.0228893	-0.212938	0.0521484	0.00226811	0.189153	0.454354	0.213411	-0.0228841	-0.147502	-0.00104879	-0.150119	-0.146466	-0.192427	0.0778832	0.368454	1.59548	0.231503	-0.324162	0.142879	0.984814	1.54815
1.11	0.026864	-0.000656185	0.0439386	1.19505	1.02885	-0.20201	0.382612	-0.0100528	-0.101754	0.0263522	0.12864	0.170726	-0.022887	-0.215769	0.0405507	-0.0038004	0.212277	0.464859	0.218166	-0.0228818	-0.146764	0.00921493	-0.151796	-0.148401	-0.193449	0.0778875	0.360618	1.59242	0.226837	-0.321257	0.13993	0.995411	1.55132
1.12	0.0283006	-0.0101167	0.048091	1.20872	1.02785	-0.201453	0.376731	0.000100666	-0.0964972	0.0311019	0.130174	0.171797	-0.0228848	-0.218832	0.0271182	-0.010144	0.23723	0.471879	0.221483	-0.0228795	-0.146442	0.0209678	-0.153399	-0.150297	-0.194528	0.0770843	0.353877	1.58936	0.220897	-0.317585	0.136868	1.00472	1.55476
